<?xml version="1.0" encoding="utf-8"?>
<!-- Generator: Adobe Illustrator 24.2.0, SVG Export Plug-In . SVG Version: 6.00 Build 0)  -->
<svg version="1.1" id="Layer_1" xmlns="http://www.w3.org/2000/svg" xmlns:xlink="http://www.w3.org/1999/xlink" x="0px" y="0px"
	 viewBox="0 0 512 512" style="enable-background:new 0 0 512 512;" xml:space="preserve">
<path d="M489.36,82.73l-23.57-12.37C447.6,60.79,425,67.8,415.4,85.97l-8.1,15.48l-15.42,29.57V17.14c0-8.89-7.23-16.13-16.13-16.13
	H16.85c-8.89,0-16.13,7.24-16.13,16.13v477.74c0,8.89,7.24,16.13,16.13,16.13h358.9c8.9,0,16.13-7.24,16.13-16.13V349.94
	l113.09-216.83C514.53,114.92,507.53,92.32,489.36,82.73z M359.62,463.03c0,8.66-7.05,15.72-15.72,15.72H48.7
	c-8.66,0-15.72-7.06-15.72-15.72V48.99c0-8.66,7.06-15.71,15.72-15.71h295.2c8.67,0,15.72,7.05,15.72,15.71v143.9l-70.51,135.22
	l-0.29,0.09l-0.38,1.29l-0.06,0.14c-0.07,0.17-0.14,0.34-0.19,0.51l-0.37,0.71l0.09,0.3l-0.12,0.23l-0.01,0.57l-0.24,0.56l0.17,0.58
	l-1.89,91.76c-0.11,3.57,1.87,6.93,5.04,8.58c1.34,0.69,2.79,1.05,4.25,1.07c1,0.01,2.01-0.14,3-0.45c0.93-0.31,1.82-0.74,2.7-1.34
	l58.81-42.19L359.62,463.03L359.62,463.03z M306.36,348.47l45.79,24.13l-47.08,33.74L306.36,348.47z M391.88,309.32l-25.67,49.29
	l-6.59-3.47l-49.59-26.13l49.59-95.21l32.26-61.95l27.71-53.2l56.18,29.6L391.88,309.32z M488.29,124.38l-3.69,7.07l-56.17-29.6
	l3.75-7.1c4.72-8.96,15.85-12.41,24.81-7.69l23.67,12.47C489.56,104.3,492.98,115.44,488.29,124.38z M391.88,223.57l33.09-63.54
	c1.72-3.31,5.77-4.63,9.11-2.97l0.07,0.03c3.44,1.71,4.81,5.9,3.03,9.3l-45.3,86.86l-27.56,52.85c-0.99,1.9-2.75,3.14-4.7,3.54
	c-1.52,0.31-3.15,0.11-4.62-0.69c-2.29-1.23-3.59-3.58-3.59-6.01c0-1.07,0.25-2.15,0.78-3.16l7.43-14.27L391.88,223.57z M72,266.846
	c0-6.255,5.088-11.344,11.343-11.344h204.356c6.255,0,11.344,5.089,11.344,11.344s-5.089,11.344-11.344,11.344H83.343
	C77.088,278.189,72,273.101,72,266.846z M72,347.519c0-6.255,5.088-11.344,11.343-11.344h131.59c6.255,0,11.343,5.089,11.343,11.344
	s-5.088,11.344-11.343,11.344H83.343C77.088,358.862,72,353.773,72,347.519z M257.191,423.191c0,6.255-5.088,11.344-11.343,11.344
	H83.343c-6.255,0-11.343-5.089-11.343-11.344s5.088-11.343,11.343-11.343h162.505C252.103,411.849,257.191,416.937,257.191,423.191z
	"/>
<path d="M245.925,119.254H211.3V84.629c0-8.271-6.729-15.001-15.001-15.001s-15.001,6.729-15.001,15.001v34.625h-34.625
	c-8.271,0-15.001,6.729-15.001,15.001s6.729,15.001,15.001,15.001h34.625v34.625c0,8.271,6.729,15.001,15.001,15.001
	s15.001-6.729,15.001-15.001v-34.625h34.625c8.271,0,15.001-6.729,15.001-15.001S254.196,119.254,245.925,119.254z"/>
</svg>
